<?xml version="1.0" standalone="no"?>
<!DOCTYPE svg PUBLIC "-//W3C//DTD SVG 20010904//EN"
 "http://www.w3.org/TR/2001/REC-SVG-20010904/DTD/svg10.dtd">
<svg version="1.0" xmlns="http://www.w3.org/2000/svg"
 width="512.000000pt" height="512.000000pt" viewBox="0 0 512.000000 512.000000"
 preserveAspectRatio="xMidYMid meet">
<metadata>
Created by potrace 1.14, written by Peter Selinger 2001-2017
</metadata>
<g transform="translate(0.000000,512.000000) scale(0.100000,-0.100000)"
fill="#000000" stroke="none">
<path d="M2129 4956 c-2 -2 -27 -6 -56 -10 -75 -9 -205 -52 -298 -98 -82 -41
-205 -127 -253 -178 -80 -84 -106 -115 -152 -187 -27 -43 -55 -84 -60 -90 -6
-7 -8 -13 -5 -13 3 0 -2 -14 -11 -32 -28 -54 -70 -193 -80 -268 -3 -23 -7 -48
-8 -55 -3 -21 -5 -22 -90 -29 -44 -4 -82 -9 -86 -11 -3 -2 -19 -6 -34 -9 -354
-64 -683 -379 -777 -743 -105 -412 29 -813 364 -1088 l48 -40 -36 -79 c-20
-43 -39 -90 -41 -104 -3 -14 -9 -32 -13 -41 -5 -9 -12 -34 -16 -56 -5 -22 -10
-47 -12 -55 -2 -8 -5 -70 -7 -138 -5 -227 50 -422 175 -608 41 -62 125 -162
154 -185 6 -5 26 -21 45 -37 19 -15 51 -39 70 -52 19 -13 37 -27 40 -30 3 -3
20 -12 37 -19 18 -8 33 -17 33 -22 0 -5 6 -9 14 -9 7 0 39 -11 70 -25 58 -26
182 -61 252 -71 55 -9 208 -10 279 -2 73 9 205 43 264 69 24 10 45 19 46 19 2
0 25 -30 51 -67 117 -164 290 -296 479 -366 141 -52 200 -62 380 -61 101 0
151 5 225 23 52 13 99 27 104 32 6 5 16 9 24 9 25 0 177 82 246 133 209 155
365 402 405 642 19 108 20 112 33 112 119 2 301 48 423 108 635 311 779 1158
282 1658 -40 40 -89 86 -111 102 l-39 30 31 60 c16 33 35 78 42 100 50 169 54
200 54 360 -1 271 -106 518 -303 716 -199 199 -470 309 -746 303 -60 -1 -123
-5 -140 -9 -16 -3 -41 -8 -55 -10 -14 -2 -70 -18 -125 -36 -55 -19 -103 -33
-107 -34 -14 0 -118 147 -112 157 4 6 2 8 -4 4 -6 -3 -36 18 -67 49 -132 129
-330 230 -530 270 -36 8 -289 17 -296 11z m301 -175 c25 -7 52 -15 60 -18 8
-3 23 -8 32 -9 38 -8 137 -58 212 -108 86 -57 159 -128 220 -213 l37 -51 -58
-35 c-32 -19 -74 -44 -93 -55 -63 -36 -294 -169 -348 -201 -29 -17 -54 -31
-56 -31 -3 0 -107 -60 -156 -90 -30 -18 -145 -85 -172 -100 -150 -82 -251
-148 -259 -168 -5 -13 -10 -327 -11 -697 l-1 -673 -46 26 c-69 38 -351 202
-394 229 l-37 23 0 691 c1 767 3 791 64 944 114 282 351 477 656 540 76 15
283 13 350 -4z m1280 -395 c80 -10 233 -64 308 -108 270 -159 431 -434 435
-743 2 -122 -6 -190 -29 -243 -8 -19 -12 -37 -10 -39 4 -5 -10 -42 -42 -113
-8 -19 -17 -37 -18 -39 -4 -5 -237 131 -246 143 -4 6 -8 8 -8 4 0 -3 -120 64
-267 149 -148 85 -293 169 -323 186 -30 16 -59 33 -65 37 -5 5 -32 20 -60 36
-48 26 -78 43 -149 83 l-33 19 -51 -26 c-42 -23 -153 -85 -224 -127 -65 -38
-253 -146 -303 -173 -33 -19 -85 -49 -115 -67 -80 -48 -278 -163 -402 -233
l-108 -61 0 277 1 277 62 35 c139 78 179 101 327 187 85 49 289 167 452 261
163 95 301 172 307 172 5 0 11 4 13 8 4 9 105 54 162 72 101 32 262 43 386 26z
m-2510 -1189 c0 -378 4 -655 9 -669 7 -18 49 -48 142 -102 73 -42 136 -76 141
-76 4 0 8 -4 8 -10 0 -5 4 -10 9 -10 18 0 170 -94 165 -102 -3 -4 1 -6 8 -3 7
2 38 -11 68 -30 30 -18 79 -46 108 -61 28 -16 52 -32 52 -36 0 -4 5 -8 11 -8
16 0 469 -263 469 -272 0 -4 -15 -15 -32 -24 -18 -9 -121 -68 -229 -130 -108
-63 -202 -114 -209 -114 -7 0 -38 15 -69 34 -31 19 -78 46 -106 62 -27 15 -53
31 -56 36 -3 6 -9 9 -13 8 -6 -1 -399 221 -456 259 -14 9 -36 22 -50 28 -14 7
-38 21 -55 32 -31 19 -41 25 -195 112 -52 29 -96 57 -98 61 -2 5 -8 8 -14 8
-21 0 -145 90 -201 147 -137 136 -209 277 -254 493 -13 60 -6 248 11 324 61
266 238 486 488 605 77 36 227 76 299 80 l49 2 0 -644z m2242 239 c128 -74
301 -173 383 -221 83 -48 175 -101 205 -118 30 -16 67 -38 82 -49 14 -10 28
-18 31 -18 9 0 256 -148 285 -170 159 -123 296 -336 326 -507 3 -15 9 -49 14
-74 10 -51 8 -212 -3 -273 -54 -308 -282 -576 -575 -676 -88 -30 -131 -40
-202 -46 l-68 -7 0 652 c0 413 -3 659 -10 671 -11 21 -7 18 -260 164 -102 59
-192 111 -200 116 -26 16 -329 190 -378 217 -26 14 -64 37 -84 50 -21 12 -42
23 -48 23 -5 0 -10 5 -10 10 0 6 -4 10 -9 10 -12 0 -191 103 -191 110 0 5 10
11 275 165 99 57 186 105 192 105 7 0 118 -60 245 -134z m-852 -246 c14 -11
28 -20 32 -20 4 0 31 -14 60 -31 29 -18 69 -41 88 -51 37 -21 342 -200 349
-204 3 -3 4 -370 1 -615 0 -33 -5 -39 -45 -60 -36 -20 -240 -136 -295 -169
-203 -120 -223 -130 -240 -115 -9 8 -20 15 -25 15 -4 0 -41 20 -82 45 -40 25
-78 45 -83 45 -6 0 -10 5 -10 10 0 6 -5 10 -11 10 -10 0 -149 78 -159 89 -5 6
-22 15 -122 68 -41 22 -48 29 -49 57 0 17 0 163 -1 325 l0 295 39 23 c21 13
45 26 53 30 8 4 59 33 113 65 53 32 99 58 101 58 2 0 45 25 95 55 51 30 95 55
99 55 4 0 18 9 32 20 14 11 27 20 30 20 3 0 16 -9 30 -20z m805 -465 c55 -32
138 -80 185 -108 47 -27 101 -58 120 -69 19 -11 41 -25 48 -31 11 -8 12 -147
9 -741 -3 -729 -3 -731 -26 -806 -71 -231 -211 -413 -406 -527 -60 -35 -189
-89 -230 -97 -16 -2 -41 -8 -55 -12 -14 -3 -79 -7 -145 -9 -180 -4 -318 32
-469 123 -86 51 -213 168 -264 244 l-32 47 22 13 c13 8 32 19 43 25 11 7 43
25 70 41 28 16 122 71 210 122 88 51 176 102 195 113 85 47 176 99 190 107 8
5 60 35 115 68 55 32 144 84 197 115 77 46 97 62 102 84 3 16 7 328 8 695 0
367 4 666 7 664 3 -2 51 -30 106 -61z m-276 -955 c1 -163 -2 -280 -7 -280 -5
0 -49 -24 -98 -53 -49 -29 -116 -68 -149 -87 -33 -18 -78 -43 -100 -56 -22
-13 -51 -29 -65 -37 -14 -8 -104 -61 -200 -117 -96 -57 -193 -113 -215 -125
-58 -33 -234 -134 -275 -158 -64 -37 -146 -76 -176 -83 -16 -4 -33 -9 -39 -13
-5 -3 -16 -6 -24 -8 -7 -1 -36 -7 -64 -14 -56 -13 -228 -17 -297 -6 -292 45
-548 242 -672 515 -92 203 -97 464 -13 677 40 102 39 102 120 54 39 -22 88
-51 110 -64 186 -105 580 -333 650 -376 22 -13 61 -35 88 -49 26 -13 47 -28
47 -32 0 -5 6 -8 13 -8 6 0 38 -16 71 -36 97 -58 88 -60 307 66 107 62 212
122 234 135 68 38 169 96 185 105 8 5 96 56 195 113 99 57 223 129 275 160 52
31 96 56 97 57 0 0 2 -126 2 -280z"/>
<path d="M2426 4122 c-3 -5 1 -9 9 -9 8 0 12 4 9 9 -3 4 -7 8 -9 8 -2 0 -6 -4
-9 -8z"/>
<path d="M4100 4126 c0 -2 8 -10 18 -17 15 -13 16 -12 3 4 -13 16 -21 21 -21
13z"/>
</g>
</svg>
